PathFileType	4	(X/Y/Z)	C:/Users/opensim2020/Desktop/walking_exp_matlab/subject03_walking17_run.trc	
DataRate	CameraRate	NumFrames	NumMarkers	Units	OrigDataRate	OrigDataStartFrame	OrigNumFrames	
100.00	100.00	5	50	mm	100.00	286	132	
Frame#	Time	RTOE			LTHI			RWRB			LTIB			RELB			RUPA			RKNE			RTHI			RASI			RFRM			RWRA			RSHO			STRN			LFRM			CLAV			LWRB			LASI			RFHD			LFIN			LSHO			RTIB			LWRA			RBHD			LHEE			RANK			RHEE			C7			RFIN			LBHD			LUPA			LTOE			RBAK			LELB			LFHD			RPSI			LPSI			T10			LKNE			LANK			*39			*40			*41			*42			*43			*44			*45			*46			*47			*48			*49			
		X1	Y1	Z1	X2	Y2	Z2	X3	Y3	Z3	X4	Y4	Z4	X5	Y5	Z5	X6	Y6	Z6	X7	Y7	Z7	X8	Y8	Z8	X9	Y9	Z9	X10	Y10	Z10	X11	Y11	Z11	X12	Y12	Z12	X13	Y13	Z13	X14	Y14	Z14	X15	Y15	Z15	X16	Y16	Z16	X17	Y17	Z17	X18	Y18	Z18	X19	Y19	Z19	X20	Y20	Z20	X21	Y21	Z21	X22	Y22	Z22	X23	Y23	Z23	X24	Y24	Z24	X25	Y25	Z25	X26	Y26	Z26	X27	Y27	Z27	X28	Y28	Z28	X29	Y29	Z29	X30	Y30	Z30	X31	Y31	Z31	X32	Y32	Z32	X33	Y33	Z33	X34	Y34	Z34	X35	Y35	Z35	X36	Y36	Z36	X37	Y37	Z37	X38	Y38	Z38	X39	Y39	Z39	X40	Y40	Z40	X41	Y41	Z41	X42	Y42	Z42	X43	Y43	Z43	X44	Y44	Z44	X45	Y45	Z45	X46	Y46	Z46	X47	Y47	Z47	X48	Y48	Z48	X49	Y49	Z49	X50	Y50	Z50	

83	0.820	341.15482	360.04953	186.19702	127.38748	952.81085	635.41840	377.58948	1084.78748	1061.17419	196.86340	1040.47937	288.63138	535.71381	936.43555	1107.07104	521.37372	917.01569	1198.76709	406.13510	779.73260	464.93457	438.66089	820.65997	644.28998	396.24930	943.97876	933.33154	447.87219	1019.17999	1083.19922	360.46692	1064.72156	1107.17383	403.35876	924.74908	1390.82886	243.96233	999.00275	1175.61731	-4.19258	771.69495	1136.36938	246.59764	957.69324	1344.43530	7.04287	844.99963	1052.00977	166.89195	940.72809	928.23596	323.83835	920.12372	1633.78589	38.45468	903.33618	988.58826	110.55753	888.61530	1392.10022	402.98224	593.16376	401.17053	57.21770	861.16040	1073.23108	312.63599	819.18018	1553.55872	297.21921	1044.95984	65.10284	362.49103	390.76724	330.09680	306.91367	362.42694	367.06146	259.86084	831.28998	1413.41052	328.09100	1137.22339	1084.03503	182.73709	830.10529	1552.23975	11.55736	761.26367	1290.58594	287.07098	1231.33618	37.25576	371.33572	802.37781	1252.25916	-23.11104	692.21753	1209.79260	191.83852	936.62677	1633.59985	357.17108	790.70172	985.61877	207.57809	785.67529	966.09808	280.05573	791.09308	1110.57971	180.84134	1035.16382	488.28183	253.94382	1078.11047	85.08607							233.43211	833.91290	1663.68286																								 
84	0.830	347.09329	397.93796	199.40704	128.51259	987.11328	633.21539	382.16370	1112.01062	1042.89697	199.15417	1062.53613	280.19284	536.48425	963.10315	1100.21533	522.48810	945.93182	1192.68201	409.47931	828.60370	453.84119	441.20395	862.04480	634.54169	397.80557	976.66339	927.66284	450.94870	1046.31055	1069.79822	362.99945	1093.63147	1088.84814	403.35367	958.81061	1383.41016	245.59538	1031.91248	1167.97314	-5.21955	813.90619	1124.59290	247.32515	990.96210	1336.85693	8.34456	888.68085	1042.56177	167.03775	973.33936	923.81366	324.15231	952.82532	1626.81519	41.17352	948.01477	981.39764	109.41493	924.14246	1383.19568	405.92258	640.87512	399.11020	59.05799	902.81232	1064.17908	312.76474	852.19604	1546.17651	301.28821	1049.16431	52.15919	365.61505	434.42383	341.91342	309.42401	407.11978	379.48019	259.13016	864.83893	1406.76465	331.60034	1165.46082	1061.49548	182.89194	863.46692	1544.97449	8.08189	800.45056	1277.92542	293.94296	1241.20837	33.56958	371.33051	834.43610	1247.36401	-26.63926	733.95447	1196.19275	192.27014	969.51233	1626.70068	359.00037	822.55286	976.64648	209.80025	817.35266	958.58398	281.41769	823.81348	1104.82874	180.49577	1067.57043	482.97171	260.44971	1083.92346	76.98780							233.87169	866.40820	1656.62317																								 
85	0.840	354.18057	440.88742	210.94348	130.14726	1021.78186	630.26764	387.73273	1138.48792	1023.07660	202.69286	1081.34338	272.65326	536.99500	989.03864	1092.76123	523.46857	974.08350	1185.53833	413.62360	878.30884	442.50232	443.92764	903.36285	624.03406	399.50110	1009.07758	920.70715	454.51447	1072.74194	1055.31641	366.24802	1121.80164	1068.77014	403.28122	991.73358	1375.32385	247.50980	1064.74426	1159.40564	-5.97165	857.44824	1111.38184	248.11084	1024.15674	1328.43921	10.25838	934.07373	1032.12732	167.43358	1005.59766	918.85681	324.68347	985.42365	1619.28162	44.45221	994.00562	973.05121	107.89146	960.04150	1373.31250	409.75381	690.10120	396.33905	61.95975	945.13995	1053.68591	312.79697	884.99445	1537.94604	306.73868	1046.70215	45.61702	368.74152	481.01456	352.29050	311.80896	454.15314	389.69400	258.14310	897.97650	1399.27893	336.12109	1192.67334	1036.97449	183.00040	896.59534	1536.82300	4.26506	840.56171	1263.37720	298.77579	1239.42651	32.43942	371.43137	865.87000	1241.65784	-30.11209	776.74957	1180.59753	192.86194	1002.11884	1619.12036	361.36111	854.14429	966.91333	212.22684	848.30103	951.26886	282.39948	856.55164	1097.90955	179.65218	1099.94165	475.10507	268.10117	1082.14954	71.34435							233.76015	899.33441	1648.29956																								 
86	0.850	361.59198	488.10336	220.13898	130.95027	1057.24829	625.81512	394.77252	1164.49219	1002.35223	204.38194	1099.28027	267.21304	537.34961	1014.16437	1084.41504	523.88934	1001.66626	1177.38232	418.12082	928.67566	431.57141	446.58749	944.89081	612.80072	401.32675	1041.09216	912.48846	458.65485	1098.41602	1039.92151	370.43353	1149.14355	1047.19678	403.65338	1023.88416	1366.95386	249.72972	1097.34949	1150.21143	-6.23870	902.19946	1096.86719	248.97621	1057.50623	1319.60107	13.13462	980.30505	1020.58472	167.01474	1037.64954	914.29987	324.83826	1017.44781	1611.63086	48.53445	1041.28271	964.47699	105.99409	996.28656	1362.96619	414.16919	740.85321	393.02975	65.14876	989.02618	1042.66943	312.80450	917.89954	1529.47485	311.99570	1047.91406	41.63137	372.11203	530.43341	360.54224	314.60965	503.43564	397.77765	256.94373	930.90698	1391.02173	341.91263	1218.73438	1010.83246	183.12596	930.00507	1528.50366	0.56055	881.58276	1246.95618	298.98361	1241.38525	32.42907	371.31839	896.82013	1234.78369	-33.53700	820.71051	1163.37122	192.99495	1035.24878	1611.95886	364.05939	885.47137	956.62122	214.49269	878.42474	944.08246	283.38818	888.69110	1090.08533	180.52382	1132.47034	468.06192	273.18912	1086.71985	68.67451							234.00610	931.45197	1639.81860																								 
87	0.860	368.85678	539.02216	226.67651	130.21455	1091.85852	619.66425	402.17709	1188.56604	980.26282	206.24094	1122.88147	264.40430	537.83997	1038.68921	1075.48450	524.08575	1028.36023	1168.05713	422.26968	979.71100	421.54306	449.05563	987.28101	601.55750	401.74118	1072.00037	903.59570	463.21109	1123.31628	1023.76904	375.37268	1175.40076	1024.38159	404.71439	1054.93970	1358.93823	252.21832	1129.57983	1140.83301	-6.00503	948.25812	1081.47229	249.87413	1091.21423	1310.78406	16.91998	1027.57520	1008.32654	166.76331	1068.41235	908.64081	325.31979	1049.71521	1604.82446	53.69363	1089.51184	955.58142	104.17599	1032.48328	1352.87256	418.77917	793.29041	389.33356	68.91048	1033.77979	1030.96045	313.05872	951.12939	1521.32080	315.06915	1048.57300	41.18324	375.90100	582.45905	366.17108	318.32367	555.01520	403.45398	255.29156	963.13928	1382.64124	349.39288	1243.57104	983.85614	183.10628	963.44574	1520.47241	-3.38330	923.48859	1229.32788	300.69403	1242.44092	32.41217	370.51648	926.89209	1226.69922	-36.20547	865.74182	1144.43677	193.31497	1067.96411	1605.34729	366.87592	916.51178	946.14642	216.34921	908.08820	936.97894	284.39835	920.41864	1081.66272	181.46487	1163.86633	461.08249	276.24805	1090.20740	68.23522							234.54851	963.32098	1631.20398																								 
